<?xml version="1.0" standalone="no"?>
<!DOCTYPE svg PUBLIC "-//W3C//DTD SVG 20010904//EN"
 "http://www.w3.org/TR/2001/REC-SVG-20010904/DTD/svg10.dtd">
<svg version="1.0" xmlns="http://www.w3.org/2000/svg"
 width="2001.000000pt" height="2001.000000pt" viewBox="0 0 2001.000000 2001.000000"
 preserveAspectRatio="xMidYMid meet">
<metadata>
Created by potrace 1.16, written by Peter Selinger 2001-2019
</metadata>
<g transform="translate(0.000000,2001.000000) scale(0.100000,-0.100000)"
fill="#000000" stroke="none">
<path d="M12790 17989 c-420 -48 -704 -252 -821 -592 -66 -191 -62 -39 -60
-2407 1 -1180 4 -2275 7 -2435 8 -396 -16 -576 -100 -743 -71 -140 -159 -210
-364 -291 -140 -54 -152 -58 -572 -166 -1270 -329 -1945 -609 -2285 -949 -114
-114 -183 -212 -260 -371 -120 -247 -190 -553 -211 -926 l-6 -115 128 13
c1204 124 2122 209 2585 239 212 13 404 -46 626 -195 173 -115 288 -273 362
-496 67 -201 62 -45 71 -2270 5 -1111 9 -2530 10 -3153 l0 -1133 1843 4 c1663
3 1851 5 1937 20 147 26 237 54 340 104 77 38 111 63 176 128 143 141 211 292
267 590 20 109 21 135 24 2173 2 1134 1 2062 -1 2062 -2 0 -43 -9 -91 -21
-246 -58 -633 -85 -880 -60 -358 36 -697 152 -949 324 -114 78 -261 218 -339
322 -77 102 -160 275 -194 401 -24 89 -27 117 -27 274 -1 160 2 184 27 284 81
310 261 602 490 794 311 262 745 421 1327 487 74 8 243 20 375 26 132 6 242
14 245 16 11 10 18 1717 19 4801 l1 3272 -1812 -1 c-997 -1 -1847 -5 -1888
-10z"/>
<path d="M3397 10905 c-375 -100 -679 -275 -938 -541 -303 -312 -510 -712
-603 -1165 -165 -799 -5 -1633 426 -2215 94 -127 287 -323 406 -413 271 -205
586 -344 942 -416 242 -49 309 -57 565 -62 197 -4 277 -2 375 11 268 35 472
95 685 202 239 119 439 287 564 474 77 115 100 160 140 274 128 363 59 764
-198 1149 -290 432 -784 683 -1531 776 -181 23 -443 41 -587 41 l-93 0 0 960
c0 762 -3 960 -12 959 -7 0 -71 -16 -141 -34z"/>
</g>
</svg>
